# xmcd
#
# Track frame offsets:
#	150
#	16282
#	34110
#	53522
#	71020
#	89470
#	107857
#	128645
#	150495
#	164582
#	183895
#
# Disc length: 2614 seconds
#
# Revision: 4
# Processed by: cddbd v1.5.2PL0 Copyright (c) Steve Scherf et al.
# Submitted via: audiograbber 1.83.01
#
DISCID=860a340b
DTITLE=Beth Nielsen Chapman - Look
DYEAR=2004
DGENRE=Country
TTITLE0=Trying To Love You
TTITLE1=Right Back Into The Feeling
TTITLE2=Look
TTITLE3=Free
TTITLE4=Touch My Heart
TTITLE5=Time Won't Tell
TTITLE6=Will And Liz
TTITLE7=Who We Are
TTITLE8=Your Love Stays
TTITLE9=The Reason
TTITLE10=I Find Your Love
EXTD=YEAR: 2004
EXTT0=
EXTT1=
EXTT2=
EXTT3=
EXTT4=
EXTT5=
EXTT6=
EXTT7=
EXTT8=
EXTT9=
EXTT10=
PLAYORDER=
